<mxfile host="app.diagrams.net" agent="Mozilla/5.0 (X11; Linux x86_64) AppleWebKit/537.36 (KHTML, like Gecko) Chrome/138.0.0.0 Safari/537.36" version="28.0.4">
  <diagram name="Page-1" id="I2g0L43gcoAq_PHCXbG9">
    <mxGraphModel dx="647" dy="481" grid="1" gridSize="10" guides="1" tooltips="1" connect="1" arrows="1" fold="1" page="1" pageScale="1" pageWidth="827" pageHeight="1169" math="0" shadow="0">
      <root>
        <mxCell id="0" />
        <mxCell id="1" parent="0" />
        <mxCell id="nLQSM6gZHCC2rWgLxpNA-1" value="Page de connexion" style="rounded=1;whiteSpace=wrap;html=1;" parent="1" vertex="1">
          <mxGeometry x="130" y="80" width="120" height="60" as="geometry" />
        </mxCell>
        <mxCell id="nLQSM6gZHCC2rWgLxpNA-2" value="Page des instances" style="rounded=1;whiteSpace=wrap;html=1;" parent="1" vertex="1">
          <mxGeometry x="130" y="180" width="120" height="60" as="geometry" />
        </mxCell>
        <mxCell id="nLQSM6gZHCC2rWgLxpNA-3" value="Page de l&#39;instance sélectionnée" style="rounded=1;whiteSpace=wrap;html=1;" parent="1" vertex="1">
          <mxGeometry x="130" y="280" width="120" height="60" as="geometry" />
        </mxCell>
        <mxCell id="nLQSM6gZHCC2rWgLxpNA-4" value="Paramètres utilisateur" style="rounded=1;whiteSpace=wrap;html=1;" parent="1" vertex="1">
          <mxGeometry x="476" y="220" width="120" height="60" as="geometry" />
        </mxCell>
        <mxCell id="nLQSM6gZHCC2rWgLxpNA-5" value="" style="endArrow=none;html=1;rounded=0;entryX=0.5;entryY=1;entryDx=0;entryDy=0;exitX=0.5;exitY=0;exitDx=0;exitDy=0;strokeWidth=1;" parent="1" source="nLQSM6gZHCC2rWgLxpNA-2" target="nLQSM6gZHCC2rWgLxpNA-1" edge="1">
          <mxGeometry width="50" height="50" relative="1" as="geometry">
            <mxPoint x="146" y="250" as="sourcePoint" />
            <mxPoint x="196" y="200" as="targetPoint" />
          </mxGeometry>
        </mxCell>
        <mxCell id="nLQSM6gZHCC2rWgLxpNA-6" value="" style="endArrow=none;html=1;rounded=0;entryX=0.5;entryY=1;entryDx=0;entryDy=0;exitX=0.5;exitY=0;exitDx=0;exitDy=0;" parent="1" source="nLQSM6gZHCC2rWgLxpNA-3" target="nLQSM6gZHCC2rWgLxpNA-2" edge="1">
          <mxGeometry width="50" height="50" relative="1" as="geometry">
            <mxPoint x="146" y="250" as="sourcePoint" />
            <mxPoint x="196" y="200" as="targetPoint" />
          </mxGeometry>
        </mxCell>
        <mxCell id="nLQSM6gZHCC2rWgLxpNA-9" value="Menu utilisateur" style="rounded=1;whiteSpace=wrap;html=1;" parent="1" vertex="1">
          <mxGeometry x="306" y="180" width="120" height="60" as="geometry" />
        </mxCell>
        <mxCell id="nLQSM6gZHCC2rWgLxpNA-10" value="" style="endArrow=none;html=1;rounded=0;entryX=0;entryY=0.5;entryDx=0;entryDy=0;exitX=1;exitY=0.5;exitDx=0;exitDy=0;" parent="1" source="nLQSM6gZHCC2rWgLxpNA-2" target="nLQSM6gZHCC2rWgLxpNA-9" edge="1">
          <mxGeometry width="50" height="50" relative="1" as="geometry">
            <mxPoint x="146" y="310" as="sourcePoint" />
            <mxPoint x="196" y="260" as="targetPoint" />
          </mxGeometry>
        </mxCell>
        <mxCell id="nLQSM6gZHCC2rWgLxpNA-12" value="Déconnexion" style="rounded=1;whiteSpace=wrap;html=1;" parent="1" vertex="1">
          <mxGeometry x="476" y="140" width="120" height="60" as="geometry" />
        </mxCell>
        <mxCell id="nLQSM6gZHCC2rWgLxpNA-13" value="" style="endArrow=none;html=1;rounded=0;entryX=0;entryY=0.5;entryDx=0;entryDy=0;exitX=1;exitY=0.5;exitDx=0;exitDy=0;edgeStyle=orthogonalEdgeStyle;curved=1;" parent="1" source="nLQSM6gZHCC2rWgLxpNA-9" target="nLQSM6gZHCC2rWgLxpNA-4" edge="1">
          <mxGeometry width="50" height="50" relative="1" as="geometry">
            <mxPoint x="476" y="310" as="sourcePoint" />
            <mxPoint x="526" y="260" as="targetPoint" />
          </mxGeometry>
        </mxCell>
        <mxCell id="nLQSM6gZHCC2rWgLxpNA-14" value="" style="endArrow=none;html=1;rounded=0;entryX=0;entryY=0.5;entryDx=0;entryDy=0;exitX=1;exitY=0.5;exitDx=0;exitDy=0;edgeStyle=orthogonalEdgeStyle;curved=1;" parent="1" source="nLQSM6gZHCC2rWgLxpNA-9" target="nLQSM6gZHCC2rWgLxpNA-12" edge="1">
          <mxGeometry width="50" height="50" relative="1" as="geometry">
            <mxPoint x="476" y="310" as="sourcePoint" />
            <mxPoint x="526" y="260" as="targetPoint" />
          </mxGeometry>
        </mxCell>
        <mxCell id="nLQSM6gZHCC2rWgLxpNA-16" value="" style="endArrow=none;html=1;rounded=0;entryX=0;entryY=0.5;entryDx=0;entryDy=0;exitX=1;exitY=0.5;exitDx=0;exitDy=0;edgeStyle=orthogonalEdgeStyle;curved=1;" parent="1" source="nLQSM6gZHCC2rWgLxpNA-3" target="nLQSM6gZHCC2rWgLxpNA-9" edge="1">
          <mxGeometry width="50" height="50" relative="1" as="geometry">
            <mxPoint x="416" y="300" as="sourcePoint" />
            <mxPoint x="466" y="250" as="targetPoint" />
          </mxGeometry>
        </mxCell>
        <mxCell id="nLQSM6gZHCC2rWgLxpNA-20" value="" style="endArrow=none;dashed=1;html=1;dashPattern=1 3;strokeWidth=2;rounded=0;entryX=0.5;entryY=0;entryDx=0;entryDy=0;exitX=1;exitY=0.5;exitDx=0;exitDy=0;edgeStyle=orthogonalEdgeStyle;curved=1;" parent="1" source="nLQSM6gZHCC2rWgLxpNA-1" target="nLQSM6gZHCC2rWgLxpNA-12" edge="1">
          <mxGeometry width="50" height="50" relative="1" as="geometry">
            <mxPoint x="416" y="300" as="sourcePoint" />
            <mxPoint x="466" y="250" as="targetPoint" />
            <Array as="points">
              <mxPoint x="536" y="110" />
            </Array>
          </mxGeometry>
        </mxCell>
      </root>
    </mxGraphModel>
  </diagram>
</mxfile>
